<?xml version="1.0" standalone="no"?>
<!DOCTYPE svg PUBLIC "-//W3C//DTD SVG 20010904//EN"
 "http://www.w3.org/TR/2001/REC-SVG-20010904/DTD/svg10.dtd">
<svg version="1.0" xmlns="http://www.w3.org/2000/svg"
 width="16.000000pt" height="16.000000pt" viewBox="0 0 16.000000 16.000000"
 preserveAspectRatio="xMidYMid meet">

<g transform="translate(0.000000,16.000000) scale(0.100000,-0.100000)"
fill="#000000" stroke="none">
<path d="M0 80 l0 -80 80 0 80 0 0 80 0 80 -80 0 -80 0 0 -80z m109 36 c31
-37 -9 -103 -46 -80 -37 23 -24 94 17 94 10 0 23 -6 29 -14z"/>
<path d="M55 100 c-9 -29 4 -60 25 -60 10 0 22 9 25 20 9 29 -4 60 -25 60 -10
0 -22 -9 -25 -20z"/>
</g>
</svg>
